<svg width="78" height="15" viewBox="0 0 78 15" fill="none" xmlns="http://www.w3.org/2000/svg">
<path d="M4.97369 5.1804C4.97369 5.1804 2.54556 5.46234 0.92578 5.65084C0.779784 5.66937 0.650694 5.77167 0.602285 5.92715C0.553876 6.08262 0.602285 6.24453 0.709861 6.34684C1.91317 7.49798 3.7212 9.22186 3.7212 9.22186C3.71966 9.22186 3.22482 11.7296 2.89594 13.4027C2.86828 13.5541 2.92053 13.7144 3.04655 13.8103C3.1718 13.9062 3.33316 13.9078 3.45995 13.8329C4.87687 12.9886 6.99918 11.7191 6.99918 11.7191C6.99918 11.7191 9.12225 12.9886 10.5369 13.8337C10.666 13.9078 10.8273 13.9062 10.9526 13.8103C11.0786 13.7144 11.1308 13.5541 11.1024 13.4035C10.7735 11.7296 10.2795 9.22186 10.2795 9.22186C10.2795 9.22186 12.0875 7.49798 13.2908 6.34926C13.3984 6.24373 13.446 6.08181 13.3984 5.92715C13.3507 5.77248 13.2216 5.67017 13.0756 5.65245C11.4559 5.46234 9.02697 5.1804 9.02697 5.1804C9.02697 5.1804 8.02037 2.8459 7.34956 1.28957C7.28656 1.15021 7.15439 1.05273 6.99918 1.05273C6.84396 1.05273 6.71103 1.15101 6.65109 1.28957C5.97951 2.8459 4.97369 5.1804 4.97369 5.1804Z" fill="#FFBC1D"/>
<path d="M20.9737 5.1804C20.9737 5.1804 18.5456 5.46234 16.9258 5.65084C16.7798 5.66937 16.6507 5.77167 16.6023 5.92715C16.5539 6.08262 16.6023 6.24453 16.7099 6.34684C17.9132 7.49798 19.7212 9.22186 19.7212 9.22186C19.7197 9.22186 19.2248 11.7296 18.8959 13.4027C18.8683 13.5541 18.9205 13.7144 19.0466 13.8103C19.1718 13.9062 19.3332 13.9078 19.4599 13.8329C20.8769 12.9886 22.9992 11.7191 22.9992 11.7191C22.9992 11.7191 25.1223 12.9886 26.5369 13.8337C26.666 13.9078 26.8273 13.9062 26.9526 13.8103C27.0786 13.7144 27.1308 13.5541 27.1024 13.4035C26.7735 11.7296 26.2795 9.22186 26.2795 9.22186C26.2795 9.22186 28.0875 7.49798 29.2908 6.34926C29.3984 6.24373 29.446 6.08181 29.3984 5.92715C29.3507 5.77248 29.2216 5.67017 29.0756 5.65245C27.4559 5.46234 25.027 5.1804 25.027 5.1804C25.027 5.1804 24.0204 2.8459 23.3496 1.28957C23.2866 1.15021 23.1544 1.05273 22.9992 1.05273C22.844 1.05273 22.711 1.15101 22.6511 1.28957C21.9795 2.8459 20.9737 5.1804 20.9737 5.1804Z" fill="#FFBC1D"/>
<path d="M36.9737 5.1804C36.9737 5.1804 34.5456 5.46234 32.9258 5.65084C32.7798 5.66937 32.6507 5.77167 32.6023 5.92715C32.5539 6.08262 32.6023 6.24453 32.7099 6.34684C33.9132 7.49798 35.7212 9.22186 35.7212 9.22186C35.7197 9.22186 35.2248 11.7296 34.8959 13.4027C34.8683 13.5541 34.9205 13.7144 35.0466 13.8103C35.1718 13.9062 35.3332 13.9078 35.4599 13.8329C36.8769 12.9886 38.9992 11.7191 38.9992 11.7191C38.9992 11.7191 41.1223 12.9886 42.5369 13.8337C42.666 13.9078 42.8273 13.9062 42.9526 13.8103C43.0786 13.7144 43.1308 13.5541 43.1024 13.4035C42.7735 11.7296 42.2795 9.22186 42.2795 9.22186C42.2795 9.22186 44.0875 7.49798 45.2908 6.34926C45.3984 6.24373 45.446 6.08181 45.3984 5.92715C45.3507 5.77248 45.2216 5.67017 45.0756 5.65245C43.4559 5.46234 41.027 5.1804 41.027 5.1804C41.027 5.1804 40.0204 2.8459 39.3496 1.28957C39.2866 1.15021 39.1544 1.05273 38.9992 1.05273C38.844 1.05273 38.711 1.15101 38.6511 1.28957C37.9795 2.8459 36.9737 5.1804 36.9737 5.1804Z" fill="#FFBC1D"/>
<path d="M52.9737 5.1804C52.9737 5.1804 50.5456 5.46234 48.9258 5.65084C48.7798 5.66937 48.6507 5.77167 48.6023 5.92715C48.5539 6.08262 48.6023 6.24453 48.7099 6.34684C49.9132 7.49798 51.7212 9.22186 51.7212 9.22186C51.7197 9.22186 51.2248 11.7296 50.8959 13.4027C50.8683 13.5541 50.9205 13.7144 51.0466 13.8103C51.1718 13.9062 51.3332 13.9078 51.4599 13.8329C52.8769 12.9886 54.9992 11.7191 54.9992 11.7191C54.9992 11.7191 57.1223 12.9886 58.5369 13.8337C58.666 13.9078 58.8273 13.9062 58.9526 13.8103C59.0786 13.7144 59.1308 13.5541 59.1024 13.4035C58.7735 11.7296 58.2795 9.22186 58.2795 9.22186C58.2795 9.22186 60.0875 7.49798 61.2908 6.34926C61.3984 6.24373 61.446 6.08181 61.3984 5.92715C61.3507 5.77248 61.2216 5.67017 61.0756 5.65245C59.4559 5.46234 57.027 5.1804 57.027 5.1804C57.027 5.1804 56.0204 2.8459 55.3496 1.28957C55.2866 1.15021 55.1544 1.05273 54.9992 1.05273C54.844 1.05273 54.711 1.15101 54.6511 1.28957C53.9795 2.8459 52.9737 5.1804 52.9737 5.1804Z" fill="#FFBC1D"/>
<path d="M68.9737 5.1804C68.9737 5.1804 66.5456 5.46234 64.9258 5.65084C64.7798 5.66937 64.6507 5.77167 64.6023 5.92715C64.5539 6.08262 64.6023 6.24453 64.7099 6.34684C65.9132 7.49798 67.7212 9.22186 67.7212 9.22186C67.7197 9.22186 67.2248 11.7296 66.8959 13.4027C66.8683 13.5541 66.9205 13.7144 67.0466 13.8103C67.1718 13.9062 67.3332 13.9078 67.4599 13.8329C68.8769 12.9886 70.9992 11.7191 70.9992 11.7191C70.9992 11.7191 73.1223 12.9886 74.5369 13.8337C74.666 13.9078 74.8273 13.9062 74.9526 13.8103C75.0786 13.7144 75.1308 13.5541 75.1024 13.4035C74.7735 11.7296 74.2795 9.22186 74.2795 9.22186C74.2795 9.22186 76.0875 7.49798 77.2908 6.34926C77.3984 6.24373 77.446 6.08181 77.3984 5.92715C77.3507 5.77248 77.2216 5.67017 77.0756 5.65245C75.4559 5.46234 73.027 5.1804 73.027 5.1804C73.027 5.1804 72.0204 2.8459 71.3496 1.28957C71.2866 1.15021 71.1544 1.05273 70.9992 1.05273C70.844 1.05273 70.711 1.15101 70.6511 1.28957C69.9795 2.8459 68.9737 5.1804 68.9737 5.1804Z" fill="#FFBC1D"/>
</svg>
