<svg width="129" height="38" viewBox="0 0 129 38" fill="none" xmlns="http://www.w3.org/2000/svg">
<g clip-path="url(#clip0_8127_7139)">
<path d="M122.989 32.686C125.52 32.686 127.313 32.2322 128.648 31.2549V26.8219C127.277 27.7643 125.625 28.3577 123.306 28.3577C119.404 28.3577 117.787 25.3558 117.787 20.6087C117.787 15.6172 119.755 13.069 123.341 13.069C125.45 13.069 127.524 13.8021 128.613 14.5002V9.89262C127.453 9.26432 125.45 8.81055 122.708 8.81055C115.713 8.81055 112.093 13.8021 112.093 20.7832C112.128 28.4275 115.678 32.686 122.989 32.686ZM88.7884 30.6615V26.2285C87.1012 27.3804 84.2189 28.3926 81.5827 28.3926C77.5756 28.3926 76.0641 26.5077 75.8181 22.6681H89.0344V19.8058C89.0344 11.8124 85.4843 8.81055 80.0361 8.81055C73.3576 8.81055 70.1941 13.8719 70.1941 20.8181C70.1941 28.8115 74.166 32.686 81.1257 32.686C84.6055 32.686 87.1715 31.7436 88.7884 30.6615ZM38.6295 9.22942V18.3049H31.3183V9.22942H25.835V32.2322H31.3183V22.6332H38.6295V32.2322H44.1129V9.22942H38.6295ZM68.8233 27.9039H66.3979V9.22942H50.4399V11.1841C50.4399 16.8039 50.0884 24.0643 48.1551 27.9039H46.3976V37.4681H51.4592V32.2322H63.7265V37.4681H68.7881V27.9039H68.8233ZM106.258 32.2322H112.479L103.692 19.8407L111.425 9.22942H105.906L98.1734 19.8407V9.22942H92.69V32.2322H98.1734V20.9228L106.258 32.2322ZM79.8955 13.069C82.602 13.069 83.4456 15.303 83.4456 18.2002V18.6539H75.8181C75.9587 14.9888 77.2944 13.069 79.8955 13.069ZM60.9145 27.9039H53.1816C54.693 24.4483 55.1148 18.1653 55.1148 14.186V13.4879H60.9145V27.9039Z" fill="#212121"/>
<path d="M21.2657 32.2329H15.6768V4.76215H13.1812C8.61172 4.76215 6.22153 7.03102 6.22153 10.4169C6.22153 14.2565 7.87357 16.0367 11.2831 18.3056L14.0951 20.1905L6.01063 32.2329H0L7.27602 21.482C3.09319 18.515 0.738147 15.6178 0.738147 10.731C0.738147 4.62253 5.02643 0.46875 13.1461 0.46875H21.2305V32.2329H21.2657Z" fill="#FC3F1D"/>
</g>
<defs>
<clipPath id="clip0_8127_7139">
<rect width="129" height="37" fill="white" transform="translate(0 0.46875)"/>
</clipPath>
</defs>
</svg>
